<svg id="bdd3e5fd-32da-445c-9334-180eea069370" data-name="Layer 1" xmlns="http://www.w3.org/2000/svg" xmlns:xlink="http://www.w3.org/1999/xlink" viewBox="0 0 1024 1024"><defs><style>.b3af3b6c-9a2b-47c9-8a92-7cd5d4d8b8af{fill:url(#fd603bfc-fbce-4455-bf23-957775fd946a);}.a0e83af5-c632-4366-826c-d4c378b54609{fill:#fff;}.a54b4fbe-6453-43ad-84df-54da398ee455{fill:#00cc96;}</style><linearGradient id="fd603bfc-fbce-4455-bf23-957775fd946a" x1="512" x2="512" y2="1024" gradientUnits="userSpaceOnUse"><stop offset="0" stop-color="#00cc96"/><stop offset="1" stop-color="#009b72"/></linearGradient></defs><rect class="b3af3b6c-9a2b-47c9-8a92-7cd5d4d8b8af" width="1024" height="1024"/><path class="a0e83af5-c632-4366-826c-d4c378b54609" d="M339,427a83.06,83.06,0,1,1-83.06-83.05A83.06,83.06,0,0,1,339,427"/><path class="a0e83af5-c632-4366-826c-d4c378b54609" d="M273.27,306.55c0,4.86-8.37,8.8-18.71,8.8s-18.73-3.94-18.73-8.8,8.39-8.81,18.73-8.81,18.71,3.94,18.71,8.81"/><path class="a0e83af5-c632-4366-826c-d4c378b54609" d="M240.06,311.31c4.87,0,8.81,8.39,8.81,18.73s-3.94,18.71-8.81,18.71h28.26c-4.86,0-8.8-8.39-8.8-18.71s3.94-18.73,8.8-18.73Z"/><path class="a0e83af5-c632-4366-826c-d4c378b54609" d="M237.66,542.1c0-4.39,7.56-7.94,16.88-7.94s16.92,3.55,16.92,7.94-7.57,8-16.92,8-16.88-3.57-16.88-8"/><path class="a0e83af5-c632-4366-826c-d4c378b54609" d="M267.65,537.79c-4.39,0-8-7.55-8-16.88s3.58-16.92,8-16.92H242.13c4.39,0,7.94,7.57,7.94,16.92s-3.55,16.88-7.94,16.88Z"/><path class="a0e83af5-c632-4366-826c-d4c378b54609" d="M376.6,447.63c-5.46,0-9.91-9.43-9.91-21.07s4.45-21.05,9.91-21.05,9.92,9.43,9.92,21.05-4.39,21.07-9.92,21.07"/><path class="a0e83af5-c632-4366-826c-d4c378b54609" d="M371.3,410.25c0,5.48-9.43,9.91-21.05,9.91s-21.07-4.43-21.07-9.91V442c0-5.46,9.43-9.91,21.07-9.91s21.05,4.45,21.05,9.91Z"/><path class="a0e83af5-c632-4366-826c-d4c378b54609" d="M137.89,410.09c4.42,0,8,7.59,8,17s-3.58,16.92-8,16.92-8-7.53-8-16.92,3.6-17,8-17"/><path class="a0e83af5-c632-4366-826c-d4c378b54609" d="M142.23,440.25c0-4.4,7.6-8,17-8s17,3.6,17,8V414.58c0,4.42-7.62,8-17,8s-17-3.58-17-8Z"/><path class="a0e83af5-c632-4366-826c-d4c378b54609" d="M350.68,354.87c-3.17,3.19-11.24.28-18-6.46s-9.65-14.82-6.48-18,11.23-.31,18,6.46,9.65,14.81,6.46,18"/><path class="a0e83af5-c632-4366-826c-d4c378b54609" d="M325.81,336.34c3.17,3.17.28,11.23-6.48,18s-14.75,9.61-17.9,6.4l18.45,18.46c-3.15-3.17-.27-11.21,6.48-18s14.81-9.65,18-6.48Z"/><path class="a0e83af5-c632-4366-826c-d4c378b54609" d="M162,497.79c2.93-2.9,10.3-.24,16.52,5.95s8.86,13.59,5.93,16.5-10.3.26-16.52-5.93S159,500.72,162,497.79"/><path class="a0e83af5-c632-4366-826c-d4c378b54609" d="M184.73,514.86c-2.92-2.93-.24-10.32,6-16.52s13.59-8.86,16.49-5.93l-16.94-17c2.93,2.91.24,10.3-5.93,16.5s-13.61,8.86-16.52,6Z"/><path class="a0e83af5-c632-4366-826c-d4c378b54609" d="M328.27,525.7c-3.46-3.43-.31-12.18,7-19.46s16-10.44,19.44-7,.33,12.19-7,19.47-16,10.46-19.46,7"/><path class="a0e83af5-c632-4366-826c-d4c378b54609" d="M348.38,498.87c-3.43,3.45-12.19.3-19.46-7s-10.46-16.05-7-19.4l-20,19.91c3.45-3.44,12.19-.31,19.48,7s10.44,16,7,19.47Z"/><path class="a0e83af5-c632-4366-826c-d4c378b54609" d="M184.39,332.72c3,3,.24,10.52-6.1,16.86s-13.87,9-16.84,6.1-.26-10.55,6.1-16.86,13.87-9,16.86-6.1"/><path class="a0e83af5-c632-4366-826c-d4c378b54609" d="M167,356c3-3,10.5-.26,16.84,6.1s9.06,13.85,6.1,16.84l17.3-17.31c-3,3-10.52.26-16.84-6.09s-9-13.88-6.09-16.85Z"/><path class="a0e83af5-c632-4366-826c-d4c378b54609" d="M315.39,324.15c-1.67,4.06-10.16,4.47-18.69.89s-14.22-9.79-12.62-13.85,10.16-4.47,18.71-.88,14.22,9.77,12.6,13.84"/><path class="a0e83af5-c632-4366-826c-d4c378b54609" d="M286,316.69c4.06,1.69,4.45,10.16.87,18.71S277.05,349.71,273,348l23.65,9.77c-4.07-1.68-4.47-10-.9-18.69s9.79-14.22,13.86-12.62Z"/><path class="a0e83af5-c632-4366-826c-d4c378b54609" d="M187.66,534.58c2-5.06,12.47-5.52,23.2-1.11s17.72,12.19,15.62,17.18-12.41,5.55-23.14,1S185.63,539.5,187.7,534.5"/><path class="a0e83af5-c632-4366-826c-d4c378b54609" d="M224.23,543.91c-5.06-2-5.55-12.48-1.12-23.2S235.3,503,240.3,505.06L211,492.87c5,2,5.53,12.48,1.08,23.2s-12.19,17.72-17.17,15.63Z"/><path class="a0e83af5-c632-4366-826c-d4c378b54609" d="M356.69,486c-3.74-1.57-4.06-9.29-.79-17.25s9-13.19,12.76-11.62,4.06,9.28.81,17.25-9,13.18-12.78,11.62"/><path class="a0e83af5-c632-4366-826c-d4c378b54609" d="M363.64,458.8c-1.57,3.76-9.29,4.07-17.25.82s-13.18-9-11.62-12.76l-9,21.78c1.56-3.76,9.28-4.07,17.27-.82s13.16,9,11.62,12.78Z"/><path class="a0e83af5-c632-4366-826c-d4c378b54609" d="M148.23,360.72c4.75,2,5.2,11.74,1,21.84s-11.44,16.76-16.19,14.73-5.2-11.75-1-21.82,11.4-16.78,16.18-14.75"/><path class="a0e83af5-c632-4366-826c-d4c378b54609" d="M139.45,395.07c2-4.73,11.72-5.2,21.84-1S178,405.45,176,410.31l11.42-27.61c-2,4.77-11.75,5.22-21.84,1.06s-16.68-11.44-14.71-16.26Z"/><path class="a0e83af5-c632-4366-826c-d4c378b54609" d="M374.22,398.71c-4.79,2-12.19-4.67-16.25-14.85s-3.76-20.08,1-22.05,12.19,4.66,16.25,14.86,3.76,20.05-1,22"/><path class="a0e83af5-c632-4366-826c-d4c378b54609" d="M356,367.91c2,4.79-4.67,12.19-14.87,16.25s-20,3.76-22-1.05L330.58,411c-2-4.8,4.68-12.19,14.86-16.25s20.07-3.76,22,1Z"/><path class="a0e83af5-c632-4366-826c-d4c378b54609" d="M132.81,454.29c4.95-2,12.49,4.8,16.84,15.32s3.88,20.7-1.06,22.74S136.1,487.53,131.73,477s-3.88-20.68,1.08-22.74"/><path class="a0e83af5-c632-4366-826c-d4c378b54609" d="M151.64,486.05c-2-4.94,4.81-12.5,15.32-16.84s20.7-3.86,22.73,1.07l-11.88-28.75c2,5-4.82,12.5-15.34,16.85s-20.68,3.92-22.74-1.06Z"/><path class="a0e83af5-c632-4366-826c-d4c378b54609" d="M283.86,540.6c-1.61-3.84,3.74-9.69,11.88-13.07s16.07-3,17.68.84-3.74,9.69-12,13.16-16.07,3-17.65-.85"/><path class="a0e83af5-c632-4366-826c-d4c378b54609" d="M308.52,526c-3.86,1.6-9.71-3.72-13.08-11.91s-3-16,.83-17.65l-22.35,9.24c3.84-1.58,9.69,3.74,13.09,11.91s3,16.07-.84,17.65Z"/><path class="a0e83af5-c632-4366-826c-d4c378b54609" d="M224.88,318.05c1.34,3.29-3.21,8.31-10.16,11.22s-13.75,2.56-15.11-.73,3.19-8.29,10.15-11.2,13.76-2.58,15.14.71"/><path class="a0e83af5-c632-4366-826c-d4c378b54609" d="M203.75,330.61c3.29-1.38,8.31,3.19,11.19,10.16s2.59,13.75-.71,15.11l19.1-7.9c-3.29,1.36-8.29-3.21-11.19-10.16s-2.56-13.73.71-15.11Z"/><path class="a0e83af5-c632-4366-826c-d4c378b54609" d="M609.67,555.75A110.83,110.83,0,1,1,498.84,444.91,110.83,110.83,0,0,1,609.67,555.75v0"/><path class="a0e83af5-c632-4366-826c-d4c378b54609" d="M522,395.05c0,6.48-11.19,11.74-25,11.74s-24.93-5.26-24.93-11.74,11.17-11.76,25-11.76,25,5.26,25,11.76"/><path class="a0e83af5-c632-4366-826c-d4c378b54609" d="M477.67,401.35c6.51,0,11.77,11.17,11.77,25s-5.26,25-11.77,25h37.71c-6.48,0-11.74-11.2-11.74-25s5.26-25,11.74-25Z"/><path class="a0e83af5-c632-4366-826c-d4c378b54609" d="M474.46,709.36c0-5.85,10.16-10.62,22.58-10.62s22.53,4.77,22.53,10.62S509.41,720,497,720s-22.58-4.74-22.58-10.61"/><path class="a0e83af5-c632-4366-826c-d4c378b54609" d="M514.49,703.61c-5.85,0-10.63-10.15-10.63-22.55s4.78-22.55,10.63-22.55H480.44c5.87,0,10.62,10.16,10.62,22.55s-4.75,22.55-10.62,22.55Z"/><path class="a0e83af5-c632-4366-826c-d4c378b54609" d="M660,583.3c-7.29,0-13.2-12.59-13.2-28.12s5.91-28.09,13.2-28.09,13.23,12.59,13.23,28.09S667.24,583.3,660,583.3"/><path class="a0e83af5-c632-4366-826c-d4c378b54609" d="M652.9,533.4c0,7.32-12.59,13.23-28.12,13.23s-28.09-5.91-28.09-13.23v42.42c0-7.29,12.59-13.2,28.09-13.2s28.12,5.93,28.12,13.23Z"/><path class="a0e83af5-c632-4366-826c-d4c378b54609" d="M341.35,533.2c5.89,0,10.67,10.16,10.67,22.67s-4.78,22.7-10.67,22.7-10.68-10.16-10.68-22.7,4.79-22.67,10.68-22.67"/><path class="a0e83af5-c632-4366-826c-d4c378b54609" d="M347.12,573.47c0-5.91,10.16-10.69,22.7-10.69s22.67,4.78,22.67,10.69V539.22c0,5.89-10.16,10.66-22.67,10.66s-22.7-4.77-22.7-10.66Z"/><path class="a0e83af5-c632-4366-826c-d4c378b54609" d="M625.29,459.53c-4.24,4.25-15,.37-24-8.63s-12.88-19.77-8.66-24,15-.39,24,8.63,12.88,19.75,8.63,24"/><path class="a0e83af5-c632-4366-826c-d4c378b54609" d="M592.18,434.73c4.24,4.24.36,15-8.64,24s-19.75,12.88-24,8.64L584.17,492c-4.24-4.25-.36-15,8.64-24s19.76-12.88,24-8.64Z"/><path class="a0e83af5-c632-4366-826c-d4c378b54609" d="M373.47,650.24c3.9-3.9,13.76-.34,22,7.93s11.8,18.12,7.92,22-13.76.34-22-7.92-11.83-18.15-7.93-22"/><path class="a0e83af5-c632-4366-826c-d4c378b54609" d="M403.87,673c-3.91-3.9-.35-13.76,7.92-22s18.12-11.82,22-7.94l-22.67-22.61c3.9,3.9.34,13.75-7.92,22s-18.15,11.81-22,7.93Z"/><path class="a0e83af5-c632-4366-826c-d4c378b54609" d="M595.37,687.48c-4.6-4.59-.39-16.25,9.36-26s21.37-13.94,26-9.37.4,16.26-9.35,26-21.39,13.93-26,9.34"/><path class="a0e83af5-c632-4366-826c-d4c378b54609" d="M622.22,651.64c-4.59,4.6-16.25.41-26-9.34s-13.94-21.39-9.35-26L560.24,643c4.59-4.59,16.25-.41,26,9.35s13.94,21.39,9.37,26Z"/><path class="a0e83af5-c632-4366-826c-d4c378b54609" d="M403.38,430c4.06,4.07.36,14-8.13,22.49s-18.51,12.07-22.49,8.13-.34-14,8.13-22.49S399.4,426,403.36,430"/><path class="a0e83af5-c632-4366-826c-d4c378b54609" d="M380.16,461c4.06-4.07,14-.37,22.47,8.12s12.08,18.51,8.12,22.49l23.08-23.07c-4,4.06-14,.34-22.49-8.13s-12.07-18.51-8.12-22.47Z"/><path class="a0e83af5-c632-4366-826c-d4c378b54609" d="M578.2,418.62c-2.24,5.44-13.43,6-25,1.2s-19.08-13.07-16.82-18.49,13.43-6,25-1.2,19.07,13.06,16.82,18.49"/><path class="a0e83af5-c632-4366-826c-d4c378b54609" d="M538.93,408.58c5.42,2.26,6,13.45,1.18,25s-13.05,19.08-18.49,16.82l31.53,13.07c-5.43-2.24-5.95-13.43-1.16-24.95s13-19.08,18.47-16.82Z"/><path class="a0e83af5-c632-4366-826c-d4c378b54609" d="M407.81,699.31c2.8-6.73,16.66-7.38,31-1.45s23.65,16.26,20.84,22.92-16.64,7.38-30.94,1.46S405,706,407.81,699.31"/><path class="a0e83af5-c632-4366-826c-d4c378b54609" d="M456.52,711.76c-6.72-2.78-7.39-16.64-1.46-31S471.32,657.15,478,660L438.87,643.7c6.75,2.78,7.4,16.66,1.46,31s-16.25,23.65-22.91,20.85Z"/><path class="a0e83af5-c632-4366-826c-d4c378b54609" d="M633.32,634.42c-5-2-5.51-12.38-1.1-23s12-17.6,17-15.52,5.49,12.37,1.1,23-12,17.59-17,15.5"/><path class="a0e83af5-c632-4366-826c-d4c378b54609" d="M642.56,598.21c-2,5-12.37,5.51-23,1.1s-17.57-12-15.5-17L592,611.34c2-5,12.38-5.49,23-1.1s17.59,12,15.5,17.07Z"/><path class="a0e83af5-c632-4366-826c-d4c378b54609" d="M355.13,467.34c6.34,2.64,7,15.66,1.38,29.15s-15.26,22.35-21.58,19.61-7-15.65-1.38-29.14,15.26-22.35,21.58-19.62"/><path class="a0e83af5-c632-4366-826c-d4c378b54609" d="M343.42,513.09c2.61-6.32,15.67-7,29.14-1.38S394.91,527,392.18,533.3l15.24-36.81c-2.62,6.34-15.66,6.95-29.13,1.38s-22.35-15.26-19.63-21.57Z"/><path class="a0e83af5-c632-4366-826c-d4c378b54609" d="M656.7,518c-6.4,2.64-16.25-6.22-21.8-19.83s-5-26.76,1.38-29.42,16.15,6.24,21.8,19.83,5,26.77-1.38,29.42"/><path class="a0e83af5-c632-4366-826c-d4c378b54609" d="M632.32,476.93c2.64,6.4-6.22,16.25-19.83,21.79s-26.77,5-29.42-1.38l15.4,37.16c-2.66-6.4,6.22-16.25,19.81-21.78s26.78-5,29.44,1.38Z"/><path class="a0e83af5-c632-4366-826c-d4c378b54609" d="M334.55,592.18c6.6-2.72,16.66,6.42,22.47,20.46s5.18,27.61-1.45,30.35-16.66-6.42-22.47-20.46-5.16-27.61,1.45-30.35"/><path class="a0e83af5-c632-4366-826c-d4c378b54609" d="M359.68,634.58c-2.72-6.6,6.42-16.68,20.46-22.49s27.61-5.16,30.35,1.44L394.6,575.2c2.74,6.6-6.42,16.65-20.44,22.46s-27.63,5.17-30.35-1.44Z"/><path class="a0e83af5-c632-4366-826c-d4c378b54609" d="M536.1,707.35c-2-5.12,5-12.92,15.87-17.43s21.45-4.06,23.59,1.1-5,12.94-15.87,17.45-21.47,4.06-23.59-1.12"/><path class="a0e83af5-c632-4366-826c-d4c378b54609" d="M569,687.81c-5.12,2-12.93-5-17.46-15.89s-4.06-21.45,1.12-23.57l-29.8,12.38c5.12-2,12.92,5,17.45,15.88s4.06,21.44-1.12,23.55Z"/><path class="a0e83af5-c632-4366-826c-d4c378b54609" d="M457.4,410.43c1.83,4.39-4.27,11.07-13.57,14.95s-18.29,3.44-20.2-.95,4.27-11.09,13.59-14.93,18.29-3.44,20.18.93"/><path class="a0e83af5-c632-4366-826c-d4c378b54609" d="M429.24,427.15c4.37-1.83,11.07,4.27,14.93,13.59s3.44,18.29-.95,20.18l25.47-10.57c-4.36,1.83-11.07-4.26-14.93-13.57s-3.43-18.28,1-20.19Z"/><path class="a0e83af5-c632-4366-826c-d4c378b54609" d="M843.73,437.92a90.06,90.06,0,1,1-90.06-90.1,90.06,90.06,0,0,1,90.06,90.1v0"/><path class="a0e83af5-c632-4366-826c-d4c378b54609" d="M772.48,307.29c0,5.28-9.08,9.54-20.31,9.54s-20.32-4.26-20.32-9.54,9.1-9.55,20.32-9.55,20.31,4.26,20.31,9.55"/><path class="a0e83af5-c632-4366-826c-d4c378b54609" d="M736.46,312.47c5.28,0,9.55,9.08,9.55,20.31s-4.27,20.32-9.55,20.32H767.1c-5.26,0-9.55-9.1-9.55-20.32s4.29-20.31,9.55-20.31Z"/><path class="a0e83af5-c632-4366-826c-d4c378b54609" d="M733.86,562.72c0-4.77,8.13-8.63,18.29-8.63s18.28,3.86,18.28,8.63-8.13,8.61-18.28,8.61-18.29-3.86-18.29-8.61"/><path class="a0e83af5-c632-4366-826c-d4c378b54609" d="M766.37,558.05c-4.78,0-8.62-8.13-8.62-18.29s3.84-18.28,8.62-18.28H738.72c4.75,0,8.61,8.13,8.61,18.28s-3.86,18.29-8.61,18.29Z"/><path class="a0e83af5-c632-4366-826c-d4c378b54609" d="M884.51,460.27c-5.94,0-10.75-10.16-10.75-22.84s4.81-22.83,10.75-22.83,10.74,10.15,10.74,22.83-4.65,22.84-10.74,22.84"/><path class="a0e83af5-c632-4366-826c-d4c378b54609" d="M878.78,419.74c0,5.95-10.16,10.74-22.84,10.74s-22.85-4.75-22.85-10.74v34.43c0-5.93,10.15-10.75,22.85-10.75s22.84,4.86,22.84,10.75Z"/><path class="a0e83af5-c632-4366-826c-d4c378b54609" d="M625.68,419.63c4.87,0,8.67,8.13,8.67,18.29s-3.88,18.45-8.67,18.45S617,448.12,617,437.92s3.86-18.29,8.68-18.29"/><path class="a0e83af5-c632-4366-826c-d4c378b54609" d="M630.37,452.26c0-4.77,8.25-8.67,18.43-8.67s18.44,3.9,18.44,8.67V424.43c0,4.81-8.24,8.67-18.44,8.67s-18.43-3.86-18.43-8.67Z"/><path class="a0e83af5-c632-4366-826c-d4c378b54609" d="M856.43,359.7c-3.45,3.43-12.19.29-19.5-7s-10.49-16.05-7-19.5,12.19-.31,19.5,7,10.46,16.05,7,19.5"/><path class="a0e83af5-c632-4366-826c-d4c378b54609" d="M829.51,339.53c3.43,3.45.3,12.19-7,19.5s-16.05,10.48-19.5,7l20,20c-3.45-3.43-.31-12.19,7-19.5s16.07-10.46,19.5-7Z"/><path class="a0e83af5-c632-4366-826c-d4c378b54609" d="M651.78,514.67c3.15-3.17,11.18-.28,17.88,6.42s9.61,14.75,6.46,17.92-11.19.27-17.9-6.44-9.61-14.75-6.44-17.9"/><path class="a0e83af5-c632-4366-826c-d4c378b54609" d="M676.47,533.16c-3.15-3.17-.27-11.17,6.44-17.9s14.75-9.61,17.92-6.44l-18.29-18.38c3.15,3.17.29,11.17-6.44,17.89s-14.75,9.61-17.9,6.44Z"/><path class="a0e83af5-c632-4366-826c-d4c378b54609" d="M832.11,544.94c-3.74-3.73-.32-13.18,7.58-21.12s17.41-11.32,21.13-7.58.32,13.16-7.6,21.11-17.39,11.31-21.11,7.59"/><path class="a0e83af5-c632-4366-826c-d4c378b54609" d="M853.91,515.81c-3.72,3.72-13.17.33-21.09-7.6s-11.29-17.47-7.62-21.11l-21.65,21.66c3.71-3.72,13.18-.32,21.1,7.62s11.34,17.37,7.6,21.09Z"/><path class="a0e83af5-c632-4366-826c-d4c378b54609" d="M676.1,335.69c3.21,3.21.27,11.39-6.6,18.28s-15,9.81-18.28,6.56-.27-11.39,6.58-18.28,15-9.81,18.28-6.56"/><path class="a0e83af5-c632-4366-826c-d4c378b54609" d="M657.21,360.88c3.23-3.21,11.4-.26,18.28,6.58s9.82,15.06,6.59,18.29L700.83,367c-3.23,3.25-11.4.29-18.29-6.56s-9.81-15.05-6.58-18.28Z"/><path class="a0e83af5-c632-4366-826c-d4c378b54609" d="M818.15,326.44c-1.83,4.43-10.91,4.84-20.31,1s-15.48-10.61-13.66-15,10.89-4.83,20.32-.95,15.5,10.6,13.67,15"/><path class="a0e83af5-c632-4366-826c-d4c378b54609" d="M786.24,318.3c4.41,1.83,4.83,10.91,1,20.31s-10.6,15.5-15,13.68l25.62,10.62c-4.41-1.83-4.84-10.91-1-20.32s10.63-15.5,15-13.67Z"/><path class="a0e83af5-c632-4366-826c-d4c378b54609" d="M679.7,554.55c2.25-5.48,13.53-6.09,25.13-1.19s19.24,13.16,17,18.63-13.53,6.09-25.15,1.19S677.42,560,679.7,554.55"/><path class="a0e83af5-c632-4366-826c-d4c378b54609" d="M719.27,564.65c-5.48-2.25-6.09-13.53-1.19-25.15s13.16-19.22,18.63-16.94l-31.78-13.17c5.47,2.28,6,13.53,1.18,25.15s-13.17,19.18-18.67,17Z"/><path class="a0e83af5-c632-4366-826c-d4c378b54609" d="M863,501.81c-4.06-1.68-4.47-10.16-.89-18.71s9.79-14.22,13.85-12.57,4.45,10,.88,18.69S867,503.44,863,501.81"/><path class="a0e83af5-c632-4366-826c-d4c378b54609" d="M870.45,472.46c-1.67,4.06-10.06,4.45-18.69.87s-14.23-9.79-12.6-13.84l-9.79,23.63c1.68-4.06,10-4.47,18.71-.89s14.22,9.79,12.57,13.85Z"/><path class="a0e83af5-c632-4366-826c-d4c378b54609" d="M636.87,366c5.16,2.13,5.65,12.74,1.12,23.69s-12.39,18.06-17.53,15.93-5.65-12.72-1.12-23.67,12.37-18.08,17.53-15.95"/><path class="a0e83af5-c632-4366-826c-d4c378b54609" d="M627.36,403.38c2-5.14,12.72-5.65,23.67-1.12s18.08,12.4,16,17.54l12.33-30c-2,5.16-12.72,5.65-23.67,1.12s-18.08-12.4-15.94-17.54Z"/><path class="a0e83af5-c632-4366-826c-d4c378b54609" d="M881.93,407.22c-5.21,2.26-13.13-5-17.74-16s-4.06-21.74,1.12-23.89,13.14,5,17.71,16.09,4.07,21.76-1.13,23.91"/><path class="a0e83af5-c632-4366-826c-d4c378b54609" d="M862.16,373.82c2.15,5.22-5.06,13.13-16.09,17.72s-21.78,4.06-23.93-1.14l12.51,30.21c-2.15-5.2,5.08-13.13,16.13-17.7s21.74-4.06,23.89,1.12Z"/><path class="a0e83af5-c632-4366-826c-d4c378b54609" d="M620.15,467.5c5.37-2.24,13.55,5.2,18.29,16.6s4.2,22.34-1.16,24.66-13.55-5.22-18.29-16.62-4.2-22.35,1.16-24.64"/><path class="a0e83af5-c632-4366-826c-d4c378b54609" d="M640.57,501.93c-2.22-5.36,5.22-13.55,16.62-18.28s22.45-4.21,24.66,1.16L669,453.66c2.22,5.37-5.22,13.55-16.62,18.29s-22.45,4.18-24.66-1.18Z"/><path class="a0e83af5-c632-4366-826c-d4c378b54609" d="M783.94,561.08c-1.71-4.07,4.06-10.51,12.9-14.23s17.43-3.25,19.16.92-4.06,10.52-12.9,14.22-17.43,3.25-19.16-.91"/><path class="a0e83af5-c632-4366-826c-d4c378b54609" d="M810.7,545.23c-4.17,1.73-10.53-4.06-14.22-12.9s-3.27-17.45.89-19.16l-24.16,10.08c4.07-1.73,10.53,4.06,14.23,12.9s3.27,17.43-.9,19.16Z"/><path class="a0e83af5-c632-4366-826c-d4c378b54609" d="M719.94,319.8c1.49,3.56-3.45,9-11,12.19s-14.93,2.8-16.39-.77,3.45-9,11.05-12.19,14.91-2.81,16.37.77"/><path class="a0e83af5-c632-4366-826c-d4c378b54609" d="M697.09,333.37c3.55-1.48,9,3.48,12.19,11.05s2.8,14.92-.77,16.4l20.7-8.6c-3.56,1.49-9-3.45-12.19-11s-2.8-14.93.77-16.39Z"/><path class="a54b4fbe-6453-43ad-84df-54da398ee455" d="M250.64,390.68a19.24,19.24,0,1,1-19.24-19.24,19.23,19.23,0,0,1,19.24,19.24"/><path class="a54b4fbe-6453-43ad-84df-54da398ee455" d="M272,443.18a25.48,25.48,0,1,1-25.47-25.48h.1A25.48,25.48,0,0,1,272,443.18"/><path class="a54b4fbe-6453-43ad-84df-54da398ee455" d="M301.21,371.5c10.38,6.4,15,17.66,10.38,25.32s-16.88,8.51-27.27,2-15-17.74-10.36-25.31,16.91-8.52,27.27-2"/><path class="a54b4fbe-6453-43ad-84df-54da398ee455" d="M300.82,479.89c1.26,8.13-7.37,16.38-19.3,18.29s-22.59-3.38-23.87-11.64,7.37-16.4,19.3-18.29,22.61,3.33,23.87,11.58"/><path class="a54b4fbe-6453-43ad-84df-54da398ee455" d="M206.7,468.39c-5.87,2.68-13.76-2-17.64-10.56s-2.23-17.58,3.64-20.32,13.77,2,17.63,10.57,2.24,17.57-3.63,20.31"/><path class="a54b4fbe-6453-43ad-84df-54da398ee455" d="M319.57,433.08c4.07,11.66,1.55,23.1-5.52,25.52s-16-5.08-20-16.74-1.55-23.12,5.52-25.54,16,5.08,20,16.76"/><path class="a54b4fbe-6453-43ad-84df-54da398ee455" d="M489.64,507a25.67,25.67,0,1,1,0-.14V507"/><path class="a54b4fbe-6453-43ad-84df-54da398ee455" d="M518.08,577a34,34,0,1,1-34-34h0a34,34,0,0,1,34,34"/><path class="a54b4fbe-6453-43ad-84df-54da398ee455" d="M557.11,481.33c13.88,8.56,20,23.69,13.82,33.79s-22.51,11.38-36.39,2.82-20-23.64-13.69-33.76,22.51-11.38,36.36-2.85"/><path class="a54b4fbe-6453-43ad-84df-54da398ee455" d="M556.6,626c1.67,11-9.85,21.88-25.74,24.37S500.69,645.88,499,634.9s9.85-21.88,25.74-24.38S554.92,615,556.6,626"/><path class="a54b4fbe-6453-43ad-84df-54da398ee455" d="M431,610.73c-7.84,3.55-18.29-2.76-23.53-14.1s-3-23.45,4.84-27,18.28,2.74,23.52,14.1,3,23.42-4.83,27"/><path class="a54b4fbe-6453-43ad-84df-54da398ee455" d="M581.63,563.51c5.35,15.59,2,30.84-7.39,34.07s-21.4-6.78-26.74-22.34-2-30.84,7.38-34.07,21.41,6.78,26.75,22.34"/><path class="a54b4fbe-6453-43ad-84df-54da398ee455" d="M747.39,398.42a20.87,20.87,0,1,1-20.86-20.86h0a20.84,20.84,0,0,1,20.84,20.84v0"/><path class="a54b4fbe-6453-43ad-84df-54da398ee455" d="M770.51,455.35a27.63,27.63,0,1,1-27.67-27.59h0a27.63,27.63,0,0,1,27.63,27.61"/><path class="a54b4fbe-6453-43ad-84df-54da398ee455" d="M802.23,377.62c11.27,6.95,16.25,19.24,11.23,27.45s-18.28,9.26-29.58,2.29-16.25-19.22-11.21-27.44,18.28-9.23,29.56-2.3"/><path class="a54b4fbe-6453-43ad-84df-54da398ee455" d="M801.8,495.15c1.38,8.94-8,17.78-20.93,19.77s-24.5-3.64-25.86-12.56,8-17.71,20.91-19.75,24.52,3.64,25.88,12.56"/><path class="a54b4fbe-6453-43ad-84df-54da398ee455" d="M699.75,482.76c-6.36,2.88-14.93-2.24-19.12-11.46s-2.44-19,3.94-21.94,14.94,2.25,19.1,11.45,2.44,19.06-3.92,21.95"/><path class="a54b4fbe-6453-43ad-84df-54da398ee455" d="M822.16,444.4c4.34,12.66,1.64,25.05-6.1,27.67s-17.39-5.51-21.74-18.16-1.64-25.05,6.1-27.67,17.39,5.5,21.74,18.16"/></svg>